<svg xmlns="http://www.w3.org/2000/svg" viewBox="0 0 128 128"><defs><style>.cls-1{fill:#311f92;}.cls-2,.cls-4{fill:none;}.cls-3{fill:#fff;}.cls-4{stroke:#5163ff;stroke-linejoin:round;stroke-width:10px;}</style></defs><g id="Fondos"><rect class="cls-1" width="128" height="128"/><rect class="cls-2" x="-97.95" y="-64.24" width="323.09" height="256.42"/><rect class="cls-2" x="-97.96" y="-64.03" width="323.1" height="255.99"/></g><g id="Texto_e_iconos" data-name="Texto e iconos"><path class="cls-3" d="M16.83,91.52c0-.38.07-.76.13-1.14a12.61,12.61,0,0,1,6.77-9.74,12.48,12.48,0,0,1,6.62-1.47c.49,0,1,.1,1.48.17.16,0,.2,0,.26-.15l2.46-4.3L45,56.65l.15-.26-7.39-4.21v-.06l17.46-4.78C56.82,53.17,58.41,59,60,64.88l-7.46-4.24-.21.37L40.17,82.38c-.2.36-.4.72-.62,1.07a.29.29,0,0,0,0,.4,12.34,12.34,0,0,1,2.62,5.22,12.56,12.56,0,0,1-3.08,11.71,12.07,12.07,0,0,1-7.71,4,12.51,12.51,0,0,1-11.62-4.54,12.33,12.33,0,0,1-2.93-7.47c0-.07,0-.15,0-.22Z"/><path class="cls-3" d="M86.86,63.38l7.46-4.25-4.8,17.54L72,71.87l7.44-4.24a1.24,1.24,0,0,0-.1-.2L67.76,47.23c-.46-.8-.92-1.6-1.37-2.4a.24.24,0,0,0-.32-.14,9.75,9.75,0,0,1-2.64.15,12.67,12.67,0,0,1-7.08-2.51,12.45,12.45,0,0,1-5-7.93,12.84,12.84,0,0,1,11-15.17A12.85,12.85,0,0,1,76.62,29.5a12.54,12.54,0,0,1-2.7,10.62.36.36,0,0,0,0,.49L85,60.18l1.69,3Z"/><path class="cls-3" d="M59.73,96.31v8.47L47,92,59.72,79.26v8.46l.27,0H86c.2,0,.27-.08.34-.25a12.51,12.51,0,0,1,7.87-7.62,12.38,12.38,0,0,1,13.1,3,12.18,12.18,0,0,1,3.8,7.72,12.84,12.84,0,0,1-24.74,6.09.43.43,0,0,0-.49-.33H59.73Z"/></g><g id="Logo"><rect class="cls-4" width="128" height="128"/></g></svg>