<svg xmlns="http://www.w3.org/2000/svg" xmlns:xlink="http://www.w3.org/1999/xlink" viewBox="0 0 16 16"><defs><style>.cls-1{fill:none;}.cls-2{clip-path:url(#clip-path);}.cls-3{fill:#fff;}</style><clipPath id="clip-path"><rect class="cls-1" x="40.59" width="630.03" height="499.18"/></clipPath></defs><g id="Fondos"><g class="cls-2"><image width="1920" height="1080" transform="translate(-97.43 -4.82) scale(0.47)" xlink:href="../Floor.png"/></g></g><g id="Texto_e_iconos" data-name="Texto e iconos"><path class="cls-3" d="M0,13c0-.07,0-.13,0-.2a2.14,2.14,0,0,1,1.15-1.65,2.19,2.19,0,0,1,1.12-.25l.25,0s0,0,0,0L3,10.19l1.77-3.1,0,0L3.55,6.33h0l3-.81.82,3L6.06,7.77l0,.06C5.34,9,4.65,10.25,4,11.46l-.11.18a.06.06,0,0,0,0,.07,2,2,0,0,1,.44.88,2.11,2.11,0,0,1-.52,2,2.06,2.06,0,0,1-1.31.67,2.11,2.11,0,0,1-2-.77A2,2,0,0,1,0,13.21s0,0,0,0Z"/><path class="cls-3" d="M11.88,8.23l1.26-.72-.81,3-3-.82L10.62,9l0,0c-.65-1.14-1.31-2.28-2-3.43l-.23-.4s0,0-.06,0a1.37,1.37,0,0,1-.45,0,2.18,2.18,0,0,1-2-1.77,2.11,2.11,0,0,1,.42-1.75A2.09,2.09,0,0,1,7.72.75a2.17,2.17,0,0,1,2.42,1.74,2.1,2.1,0,0,1-.46,1.8.06.06,0,0,0,0,.08l1.89,3.32.28.5Z"/><path class="cls-3" d="M7.28,13.82v1.44L5.11,13.09l2.16-2.16v1.43h4.46s0,0,0,0a2.18,2.18,0,0,1,3.56-.79A2.08,2.08,0,0,1,16,12.84a2.18,2.18,0,0,1-4.2,1,.07.07,0,0,0-.08,0H7.28Z"/></g></svg>