<svg xmlns="http://www.w3.org/2000/svg" xmlns:xlink="http://www.w3.org/1999/xlink" viewBox="0 0 16 16"><defs><style>.cls-1{fill:none;}.cls-2{clip-path:url(#clip-path);}.cls-3{fill:#fff;}</style><clipPath id="clip-path"><rect class="cls-1" x="40.59" y="-20.65" width="630.03" height="499.18"/></clipPath></defs><g id="Fondos"><g class="cls-2"><image width="1920" height="1080" transform="translate(-97.43 -25.47) scale(0.47)" xlink:href="../Floor.png"/></g></g><g id="Texto_e_iconos" data-name="Texto e iconos"><path class="cls-3" d="M12.82,9.07v2.11L16,8,12.82,4.82V6.93H6.28a.09.09,0,0,1-.09-.06,3.09,3.09,0,0,0-2-1.9A3.08,3.08,0,0,0,1,5.71,3,3,0,0,0,0,7.64,3.2,3.2,0,0,0,6.18,9.15a.12.12,0,0,1,.13-.08h6.51Z"/></g></svg>